<svg width="300" height="303" viewBox="0 0 300 303" fill="none" xmlns="http://www.w3.org/2000/svg">
<path fill-rule="evenodd" clip-rule="evenodd" d="M81.8973 166.984C82.5131 171.12 84.0609 174.756 85.3672 178.629C85.9846 180.46 86.9476 182.325 87.893 184.008C88.5049 185.097 89.2807 187.685 90.4034 186.173C90.5898 186.962 90.3448 187.349 90.604 188.078C90.9693 189.108 92.8651 190.39 93.6893 191.184C94.4836 191.948 95.3574 192.534 96.2127 193.21C96.3818 193.343 96.733 193.234 96.8698 193.389C97.125 193.679 96.8867 194.081 96.9945 194.216C98.3346 195.9 100.66 197.096 102.402 198.333C104.893 200.101 107.371 201.868 109.798 203.721C111.716 205.186 113.546 206.73 115.448 208.196C116.36 208.898 117.049 209.595 117.727 210.51C118.567 211.647 118.695 211.698 118.11 212.872C117.064 214.971 115.178 216.325 113.919 218.208C112.483 220.356 111.56 222.757 109.61 224.549C108.738 222.583 107.611 225.457 109.059 225.154C108.386 227.148 106.883 228.847 105.88 230.723C104.694 232.941 103.397 234.955 101.993 237.04C101.85 236.524 101.707 236.007 101.564 235.491C100.199 235.817 101.292 236.818 101.392 237.233C101.478 237.584 101.774 237.621 101.563 238.386C101.404 238.96 100.853 239.449 100.503 239.925C99.7164 240.999 98.9842 242.103 98.2418 243.206C97.5108 244.291 97.2556 245.187 96.7845 246.248C96.3641 247.195 95.9772 247.015 95.3 247.712C94.5996 248.432 93.9028 249.688 93.2791 250.517C91.4227 252.986 89.7546 255.813 88.4872 258.621C87.2791 261.299 85.0487 263.181 84.029 266.021C83.5076 267.47 83.3169 268.995 82.865 270.46C82.4423 271.828 81.7502 273.1 81.4887 274.52C81.2712 275.698 81.4112 277.064 81.3058 278.097C81.2197 278.941 80.8662 280.237 80.9708 281.428C81.1926 283.936 82.2331 286.112 83.4749 288.201C77.8088 290.121 71.3624 290.66 65.4175 290.521C62.3793 290.45 58.9169 290.421 55.944 291.124C54.2247 291.53 52.9043 292.036 51.0985 291.895C49.2943 291.753 47.4917 291.584 45.6883 291.428C46.2149 290.368 47.9341 289.031 48.8991 288.218C49.4563 287.748 50.3749 287.637 50.8012 287.183C51.2896 286.664 51.4387 285.368 51.6125 284.743C52.9499 279.945 53.9373 275.103 54.7749 270.196C56.2546 261.524 56.8284 252.694 57.375 243.968C57.4143 243.341 57.721 242.582 57.7053 241.986C57.6805 241.023 57.4886 240.481 57.5618 239.565C57.6082 238.984 58.3014 238.208 58.2716 237.695C58.2448 237.244 57.4729 237.587 57.4741 236.91C57.476 235.937 58.8673 234.535 59.1579 233.662C59.2775 233.301 58.7985 232.809 58.8123 232.417C58.8079 232.538 59.1367 231.058 59.1497 231C59.2511 230.56 59.6487 230.421 59.6286 229.868C59.6113 229.391 58.9125 228.769 59.29 228.274C59.548 227.936 60.4871 228.479 60.699 228.094C60.9719 227.599 59.7729 225.908 59.9058 225.141C60.1225 223.894 61.0132 222.629 61.3164 221.347C61.4513 220.775 61.3018 219.882 61.7454 219.41C62.469 218.639 63.0985 219.428 64.1426 219.171C63.0777 218.267 62.8712 217.476 63.1858 216.156C63.4316 215.127 63.9216 213.983 65.0478 215.011C64.8799 213.474 64.8858 213.234 66.0337 212.07C66.5905 211.505 67.1906 210.555 67.8563 210.174C68.0577 209.962 68.2594 209.75 68.4611 209.539C68.734 209.823 69.0585 209.985 69.4344 210.021C72.6534 209.85 74.2614 209.191 77.2181 211.121C78.4651 211.936 79.7081 212.545 80.7801 213.605C81.9755 214.787 82.9397 216.179 84.2205 217.283C85.6523 218.519 87.0652 219.533 88.3424 220.95C89.3983 222.121 90.414 223.448 91.8289 224.164C91.937 222.469 91.0106 220.954 90.2005 219.474C90.1064 219.303 89.4418 218.85 89.4143 218.87L89.4135 218.872L89.4026 218.821C89.367 218.563 89.6128 218.335 89.5656 218.104L89.552 218.057C90.7786 219.166 92.0463 220.812 93.451 221.642C95.7436 222.997 94.7251 220.353 94.2874 218.993C93.0405 215.116 90.7813 211.401 88.1694 208.272C83.5992 202.799 75.9755 196.688 68.6798 200.133C61.4489 203.548 57.6396 209.283 55.5649 216.911C53.1571 225.766 52.0517 234.226 51.8228 243.399C51.6915 248.65 51.1559 253.858 50.6038 259.08C50.0647 264.175 49.8441 269.695 48.8158 274.698C48.1705 273.759 47.7898 273.05 47.4677 271.995C47.3368 271.568 47.5012 271.15 47.2778 270.73C47.1748 270.537 46.6526 270.561 46.555 270.384C45.754 268.94 44.6286 266.951 44.2605 265.288C44.0662 264.412 44.2436 263.901 43.8684 263.103C43.5161 262.356 43.3387 263.065 43.2046 262.142C43.1858 262.014 43.7764 261.804 43.5944 261.206C43.1347 259.697 42.8102 261.127 42.5896 261.118C42.1347 261.099 43.1622 258.003 43.0812 257.517C42.988 256.958 42.7273 257.263 42.6002 256.855C42.4858 256.487 42.3458 255.955 42.2597 255.444C41.999 253.886 41.4083 253.377 41.3816 251.692C41.3497 249.657 40.5955 248.348 40.2577 246.404C40.1952 246.046 40.5865 245.644 40.5157 245.331C40.369 244.679 39.8967 244.138 39.7131 243.449C39.3293 242.009 40.0953 240.766 39.9887 239.379C40.0061 239.606 39.5578 238.357 39.5298 238.247C39.3682 237.613 39.4374 236.763 39.3096 236.072C39.1893 235.424 38.7902 234.559 39.1476 233.953C39.3918 233.539 39.9412 233.652 40.2609 233.189C39.0863 232.811 39.3328 233.224 38.9085 231.928C38.5035 230.691 38.4642 229.655 39.8059 230.472C39.4669 229.638 38.8358 228.614 38.6981 227.719C38.5727 226.903 38.8731 226.112 38.787 225.299C38.557 223.122 37.8857 221.798 39.1236 219.686C37.4929 218.852 38.1987 215.948 37.9459 214.368C37.6722 212.654 37.0045 211.015 38.2915 209.889C36.6596 208.717 37.4893 204.915 37.5196 203.1C37.5487 201.363 37.413 199.602 37.4335 197.585C37.4457 196.444 37.1244 195.66 36.8523 194.532C36.5011 193.079 36.8582 191.963 36.7382 190.558C36.6427 189.441 36.2207 188.319 36.1637 187.129C36.1051 185.916 36.2062 184.553 36.0351 183.361C35.8928 182.374 35.6568 181.668 35.6321 180.602C35.625 180.286 35.4708 179.719 35.5357 179.425C35.5334 179.436 35.9758 178.409 35.9726 178.862C35.9856 177.174 35.1401 175.524 35.5833 173.467C35.9478 171.777 36.2534 172.054 37.9577 172.159C39.3022 172.242 40.6462 172.33 41.9935 172.335C43.7387 172.342 49.351 171.132 50.614 172.362C51.66 173.381 51.0521 178.202 51.1233 179.658C51.2385 182.028 48.9687 182.752 48.3395 185.173C47.1398 189.788 49.1217 195.879 54.5295 196.274C59.574 196.642 64.4131 192.495 63.7206 187.398C63.4426 185.352 62.5 183.126 60.7206 181.929C58.9994 180.77 55.3431 181.644 54.1445 180.248C53.5853 179.596 53.8071 177.065 53.7422 176.215C53.6479 174.979 53.0816 172.507 53.8964 171.921C54.8162 171.259 57.6573 171.247 58.7073 171.244C60.1953 171.24 61.5496 171.241 63.0262 170.992C66.294 170.438 69.552 170.461 72.7624 169.737C75.9495 169.019 78.8945 168.267 81.8973 166.984ZM120.843 166.984C121.507 166.967 122.933 172.461 123.309 173.43C124.337 176.079 124.758 178.751 125.33 181.536C125.916 184.395 126.443 187.301 127.203 190.119C127.774 192.236 127.646 194.286 128.414 196.418C128.211 197.737 128.394 200.017 126.936 200.585C125.618 201.097 124.761 199.845 124.272 198.76C122.95 195.828 123.374 191.916 122.892 188.763C122.324 185.042 122.29 181.376 121.844 177.65C121.451 174.367 120.12 170.22 120.843 166.984ZM63.3009 91.7003C64.7463 93.3314 66.8689 92.6469 68.7729 92.466C67.9651 94.3016 66.8056 96.2658 66.7624 98.321C66.7403 99.3873 67.3142 100.334 67.3079 101.351C67.3012 102.36 66.4827 103.301 66.0945 104.237C64.351 108.439 63.9294 114.131 63.8641 118.643C63.7296 127.976 66.524 137.918 72.4672 145.236C73.7215 146.78 75.1311 148.206 76.707 149.425C77.564 150.087 81.5112 151.66 81.6961 152.59C82.054 154.391 78.0033 154.213 76.8974 154.374C74.5718 154.713 72.2725 155.2 69.9434 155.513C60.6091 156.768 51.3948 157.771 41.9847 157.264C40.9436 157.208 38.9967 157.726 38.0127 157.309C36.8564 156.82 37.2509 155.846 37.2788 154.707C37.3508 151.783 36.9303 148.908 36.6849 146.003C36.4863 143.654 37.0243 143.967 38.7474 142.667C40.5291 141.322 42.271 138.825 42.8527 136.685C44.5101 138.021 43.3097 138.74 43.5457 140.454C43.8336 142.545 45.2475 142.202 46.18 140.803C47.6266 138.632 47.4988 135.2 46.1466 133.031C44.9356 131.088 40.6148 128.104 38.1633 128.993C34.9017 130.176 38.4516 134.145 39.995 135.005C39.6142 136.103 37.5073 137.069 36.5685 137.672C35.2651 138.509 33.5739 138.995 32.0671 139.458C28.0472 140.695 24.1405 140.874 19.992 140.268C16.0054 139.686 11.4404 138.389 8.86856 135.121C7.7563 133.709 6.73371 131.558 7.80074 129.789C8.76197 128.194 11.1383 128.084 12.3068 126.539C12.8114 125.873 13.0541 124.988 13.5178 124.342C14.2721 123.293 13.9685 123.48 15.3868 123.6C17.6825 123.795 20.1304 123.943 22.3911 123.39C24.0902 122.974 25.7448 122.197 27.4073 121.702C29.172 121.176 30.8451 120.07 32.2099 118.878C35.3575 116.128 38.439 113.14 41.3534 110.144C44.2509 107.165 46.1065 103.331 48.8187 100.172C51.8928 96.593 54.8484 92.0176 59.3537 90.0471C61.942 88.9154 61.8948 90.1123 63.3009 91.7003ZM74.246 103.599C74.6844 104.057 74.4053 106.685 74.8235 107.523C76.397 110.68 79.1261 110.06 81.9695 109.397L82.1437 109.356C82.394 111.938 82.588 114.846 83.6299 117.251C84.0954 118.326 84.831 119.248 85.2067 120.371C85.4444 121.082 85.3486 121.985 85.6175 122.647C85.908 123.362 86.6444 123.913 87.0749 124.617C87.5949 125.469 87.8677 126.263 88.552 127.008C90.0497 128.638 92.0834 130.019 93.2294 131.963C93.6997 132.761 93.7825 133.352 93.7683 134.281C93.7635 134.614 93.529 135.838 93.6335 136.084C94.0155 136.989 95.3893 137.222 95.5411 138.391C95.627 139.048 95.2695 138.969 95.1476 139.516C95.0018 140.174 95.1062 140.626 94.8654 141.359C94.483 142.523 92.7958 144.713 92.9708 145.715C90.4884 147.082 86.1229 147.948 83.3417 147.324C80.4978 146.686 77.6548 143.458 75.8197 141.343C71.5113 136.378 69.0029 128.536 68.7676 122.042C68.6482 118.746 69.0873 115.435 69.2426 112.145C69.3301 110.291 68.9344 105.069 70.5053 103.771C70.8565 103.481 73.9381 103.277 74.246 103.599ZM51.0656 109.816C47.2337 110.035 43.9445 116.034 44.6536 119.538C45.2361 122.414 46.2186 120.19 46.9647 118.955C47.8453 117.496 49.4389 115.733 51.3307 116.107C53.4333 116.523 53.9694 119.084 54.8268 120.707C56.3902 123.667 56.8771 120.488 57.2236 118.692C56.9479 115.178 55.6575 109.553 51.0656 109.816Z" fill="#FAB417"/>
<path fill-rule="evenodd" clip-rule="evenodd" d="M282.066 289.062C280.068 289.683 278.195 290.596 276.269 291.412C274.084 292.338 272.558 292.501 270.172 292.497C260.932 292.483 251.789 292.957 242.533 293.144C240.005 293.195 237.439 293.22 234.91 293.174C233.889 293.156 232.888 293.04 231.872 292.956C231.216 292.902 228.354 293.295 227.972 293.066C226.899 292.42 227.536 288.263 227.406 286.931C227.18 284.618 226.594 282.389 225.778 280.216C222.859 272.441 217.951 264.856 211.746 259.307C220.137 255.784 229.29 251.138 238.603 253.228C242.149 254.024 246.85 255.066 248.677 258.497C250.626 262.159 252.333 266.186 254.562 269.693C257.052 273.611 259.696 276.969 263.302 279.908C264.724 281.068 271.894 288.193 270.805 282.693C270.456 280.929 269.165 279.289 268.134 277.849C267.61 277.116 264.784 274.713 265.224 273.864C265.718 272.912 270.814 272.241 271.906 271.938C274.162 271.313 276.405 270.646 278.652 269.99C277.84 271.521 273.42 277.314 276.244 278.795C277.281 279.339 279.965 277.412 281.102 277.074C283.039 276.497 284.81 276.877 286.714 277.448C286.665 278.382 284.828 278.394 284.218 279.033C283.325 279.967 282.698 282.486 283.398 283.605C284.702 285.691 289.75 283.563 292.007 284.354C289.47 286.972 285.489 288 282.066 289.062ZM155.993 202.983C156.019 203.037 155.971 203.112 155.668 203.375C155.575 203.043 155.41 202.97 155.208 203.061C155.37 202.884 155.505 202.79 155.668 203.375C155.796 203.264 155.902 203.127 155.993 202.983ZM156.765 201.885C156.704 202.085 156.566 202.179 156.356 202.174C156.367 202.139 156.377 202.107 156.385 202.081C156.525 201.644 156.711 201.718 156.649 200.915C156.733 201.05 156.796 201.185 156.75 201.32C156.883 201.524 156.887 201.712 156.765 201.885ZM134.307 239.616C134.52 239.101 134.576 238.504 134.851 238.03C134.582 238.51 134.578 239.102 134.307 239.616ZM221.113 292.738C217.768 292.604 214.509 292.664 211.165 292.809C204.021 293.12 196.845 293.166 189.715 293.739C186.227 294.019 182.874 294.126 179.375 294.009C176.316 293.906 173.246 294.015 170.197 293.759C166.849 293.477 163.714 292.552 160.335 292.502C157.104 292.454 153.256 292.08 150.122 292.552C149.581 292.633 149.29 292.978 148.652 293.061C147.769 293.176 146.528 292.817 145.625 292.756C144.041 292.649 142.289 292.824 140.743 292.455C140.212 292.329 139.84 292.134 139.325 291.926C138.86 291.739 137.818 291.594 137.563 291.527C139.036 290.978 135.768 289.859 135.504 289.798C135.438 290.021 135.585 290.333 135.826 290.636C134.99 289.994 135.885 290.231 134.518 289.581C133.942 289.308 132.855 289.132 132.21 289.059C131.59 288.989 131.255 289.062 130.972 289.047C131.03 288.984 131.086 288.899 131.14 288.786C131.597 287.844 130.206 286.77 129.424 287.402C129.514 287.586 129.661 287.926 129.838 288.26C129.83 288.251 129.824 288.244 129.816 288.235C129.526 287.9 128.981 287.044 128.438 286.468C129.126 286.089 128.285 285.572 127.967 285.043C127.75 285.162 127.509 285.263 127.385 285.429C127.565 285.052 128.014 284.71 127.751 283.977C127.676 283.767 127.477 283.451 127.228 283.229C127.465 283.414 127.711 283.619 128.03 283.576C127.631 282.972 127.485 282.744 127.333 282.14C127.226 281.714 127.822 281.303 127.256 280.918C127.273 280.516 127.512 278.673 126.51 279.316C126.51 279.316 126.51 279.316 126.51 279.316C126.51 279.316 126.51 279.315 126.511 279.314C127.152 277.354 128.242 275.331 129.052 273.414C130.939 268.951 132.879 264.455 134.854 260.031C138.12 252.713 141.53 245.414 145.287 238.293C149.012 231.233 153.079 224.405 156.595 217.248C159.986 210.343 163.942 203.736 167.357 196.842C168.966 193.595 171.121 190.91 171.67 187.137C171.848 185.915 171.904 183.368 170.054 183.826C168.852 184.124 167.169 187.134 166.393 188.112C165.697 187.158 161.775 181.55 160.723 184.891C159.821 187.756 165.47 189.004 163.216 191.889C162.992 192.175 162.067 192.464 161.763 192.729C161.171 193.244 160.63 194.152 160.173 194.773C159.131 196.189 158.27 197.693 157.307 199.157C157.126 199.433 156.464 200.056 156.413 200.378C156.386 200.55 156.529 200.726 156.642 200.904C155.858 201.597 154.87 202.209 154.687 203.332C154.741 203.356 154.791 203.359 154.839 203.35C154.111 204.112 153.189 205.958 153.057 206.15C152.076 207.577 151.114 209.07 150.144 210.575C149.62 211.389 148.704 212.346 148.403 213.26C148.299 213.576 148.603 214.143 148.319 214.439C147.571 215.217 146.841 215.052 146.281 216.617C146.061 217.232 146.042 218.094 145.688 218.623C145.121 219.471 144.31 219.87 143.779 220.782C142.775 222.513 141.569 224.414 140.936 226.16C140.934 226.167 140.933 226.174 140.93 226.181C140.909 226.044 140.879 225.896 140.844 225.734C140.485 226.379 140.126 227.024 139.768 227.668C140.388 227.547 140.72 227.378 140.871 227.102C140.854 227.195 140.824 227.291 140.768 227.391C140.451 227.537 140.117 227.629 139.768 227.668C139.527 228.065 139.302 228.471 139.092 228.884C138.989 229.093 138.643 230.368 138.497 231.334C138.444 230.96 138.39 230.623 138.384 230.579C137.929 231.454 137.474 232.33 137.019 233.206C137.845 232.571 137.798 232.463 138.584 232.448C137.593 232.468 136.093 233.859 135.956 235.196C135.933 235.414 136.066 235.652 136.184 235.876C136.157 235.872 136.13 235.868 136.099 235.866C135.061 235.778 135.364 235.987 134.971 236.852C135.121 236.791 135.995 236.451 136.323 236.185C136.359 236.298 136.365 236.403 136.309 236.491C136.052 236.9 133.95 236.636 135.3 237.543C134.179 236.79 133.618 239.264 134 240.114C133.698 240.55 133.338 240.951 133 241.355C132.169 242.346 131.709 243.098 131.165 244.305C130.237 246.36 129.131 248.4 128.118 250.416C127.733 251.182 127.284 251.835 126.812 252.547C125.975 253.809 126.122 253.494 126.783 254.87C126.535 254.79 126.168 254.984 125.814 255.267C126.006 254.94 126.252 254.697 126.783 254.87C125.945 253.125 125.225 255.251 124.84 256.251C124.857 256.251 124.871 256.247 124.887 256.246C124.835 256.324 124.795 256.393 124.771 256.447C124.377 257.259 123.913 257.756 124.249 258.607C124.345 258.134 124.729 257.767 124.892 257.361C124.663 258.353 123.58 259.542 123.253 260.199C122.982 260.745 122.943 261.318 122.61 261.912C122.296 262.469 122.014 262.845 121.773 263.483C120.609 266.568 120.042 270.004 119.308 273.244C118.44 277.073 118.082 281.142 117.897 285.061C117.843 286.2 117.813 287.207 118.223 288.289C118.283 288.445 118.922 289.28 118.905 289.585C118.817 291.179 115.822 290.848 114.67 290.802C112.839 290.728 111.593 291.024 109.834 291.279C108.211 291.513 106.619 291.385 104.971 291.783C102.234 292.444 98.159 293.491 95.513 292.039C94.234 291.337 92.6227 289.301 91.6943 288.158C90.5516 286.753 90.1671 285.32 89.9625 283.53C89.613 280.466 89.5891 277.08 90.6545 274.152C95.6049 260.546 104.097 248.177 111.421 235.795C118.293 224.175 125.998 213.162 132.884 201.574C136.525 195.448 140.904 189.388 145.234 183.726C149.66 177.94 152.818 171.644 155.939 165.094C159.173 166.809 162.596 168.572 166.213 169.347C168.269 169.788 170.311 169.654 172.384 169.796C173.912 169.901 175.191 170.262 176.747 170.302C183.572 170.476 191.458 169.658 197.981 167.643C199.547 167.159 200.946 166.657 202.413 165.961C204.286 165.072 204.793 164.694 204.899 166.761C205.105 170.763 205.758 174.653 206.066 178.632C206.366 182.51 207.147 186.334 207.838 190.166C208.188 192.106 208.565 194.045 208.852 195.996C209.07 197.476 209.727 199.535 209.466 201.014C209.178 202.648 207.63 204.305 206.744 205.699C205.845 207.113 204.942 208.524 204.045 209.939C202.364 212.594 200.69 215.114 198.705 217.549C195.024 222.065 191.89 226.787 188.4 231.45C184.694 236.402 181.614 241.75 177.977 246.752C176.056 249.395 174.091 251.887 172.832 254.863C171.788 257.332 169.686 259.603 168.401 262.045C166.713 265.253 164.566 268.191 162.89 271.414C161.72 273.666 159.46 275.956 159.223 278.572C158.826 282.962 163 278.576 163.966 277.352C165.262 275.71 166.684 272.837 168.631 271.947C170.021 271.311 172.053 271.38 173.562 270.883C175.144 270.361 176.696 269.82 178.294 269.343C181.405 268.414 184.407 267.102 187.432 265.922C190.563 264.7 193.693 263.467 196.765 262.108C198.187 261.48 199.385 261.157 200.905 260.883C201.558 260.765 203.898 259.661 204.413 259.754C205.278 259.912 206.47 262.454 207.126 263.108C208.137 264.116 209.274 264.94 210.219 266.024C212.079 268.16 214.05 270.436 215.663 272.758C219.267 277.944 222.638 283.61 223.921 289.856C224.496 292.66 223.824 292.846 221.113 292.738ZM127.372 285.958C127.35 285.911 127.337 285.866 127.327 285.822C127.339 285.866 127.349 285.909 127.372 285.958C127.799 285.705 127.912 285.839 127.956 286.046C127.741 285.908 127.541 285.858 127.372 285.958ZM126.378 283.063C126.361 282.984 126.353 282.912 126.35 282.844C126.356 282.916 126.362 282.989 126.378 283.063C126.612 282.906 126.807 282.951 126.994 283.063C126.795 282.955 126.58 282.928 126.378 283.063ZM126.807 281.168C126.938 281.158 127.088 281.087 127.256 280.918C127.118 281.056 126.988 281.202 126.87 281.354C126.872 281.335 126.875 281.317 126.876 281.298C126.879 281.262 126.849 281.217 126.807 281.168ZM84.3088 265.294C83.3372 267.584 82.9327 270.09 82.1073 272.436C81.4762 274.23 81.2241 276.003 81.0587 277.88C81.6344 278.304 81.6215 278.677 81.0199 279.001C80.9771 279.409 80.9625 279.818 80.9763 280.229C80.82 281.424 81.0505 282.463 81.3666 283.608C81.8677 285.424 82.5027 286.729 83.4346 288.299C77.7789 290.217 71.3354 290.757 65.4016 290.618C62.1944 290.543 58.5969 290.537 55.4717 291.327C52.1066 292.179 49.1559 291.823 45.6989 291.526C46.2039 290.508 48.134 288.811 49.1115 288.104C49.609 287.745 50.4274 287.684 50.8048 287.281C51.3432 286.707 51.4065 285.593 51.6154 284.841C52.949 280.043 53.9359 275.204 54.7735 270.297C56.2493 261.646 56.9349 252.79 57.3701 244.074C57.407 243.337 57.7879 242.509 57.7694 241.811C57.7451 240.893 57.4828 240.593 57.5566 239.671C57.6045 239.07 58.3255 238.253 58.2733 237.719C58.2403 237.384 57.4195 237.673 57.469 237.017C57.5456 236.007 58.8533 234.676 59.1502 233.77C59.2821 233.366 58.7901 232.964 58.8054 232.524C58.8011 232.65 59.1301 231.162 59.1423 231.108C59.2417 230.68 59.6422 230.501 59.6206 229.976C59.6006 229.5 58.9067 228.876 59.2825 228.383C59.6627 227.883 60.45 228.639 60.6896 228.202C60.9621 227.707 59.7644 226.017 59.8975 225.25C60.1304 223.909 61.0434 222.466 61.4008 221.103C61.5347 220.593 61.3191 219.961 61.7346 219.519C62.4579 218.749 63.0855 219.539 64.1285 219.28C63.0937 218.402 62.8659 217.554 63.173 216.266C63.422 215.221 63.9023 214.089 65.0325 215.122C64.8837 213.76 64.7242 213.622 65.7024 212.485C66.5468 211.502 67.6412 210.326 68.652 209.574C70.1628 208.449 72.5744 207.87 74.3663 207.738C76.3219 207.594 78.7261 208.642 80.2062 210.12C82.0063 211.917 84.3347 213.227 86.3771 214.946C88.5582 216.78 90.4306 218.96 92.5261 220.905C92.9561 221.304 93.7482 222.42 94.4126 222.228C95.4965 221.915 94.6212 220.298 94.3836 219.578C92.6942 214.46 89.6578 209.304 85.481 205.812C83.327 204.01 81.184 201.732 78.6801 200.42C76.6573 199.36 75.0775 199.527 72.927 199.452C71.0888 199.387 70.711 199.278 69.0718 200.052C67.9098 200.6 66.7592 201.135 65.6628 201.805C63.9094 202.877 62.101 204.179 60.805 205.798C57.3551 210.11 56.0085 215.593 54.6529 220.847C53.1611 226.626 52.1341 232.273 51.9531 238.269C51.7693 244.37 51.4866 250.382 50.8849 256.459C50.572 259.619 50.2118 262.773 49.8034 265.922C49.4272 268.826 49.4076 271.947 48.8225 274.798C48.0854 273.724 47.8564 272.895 47.4496 271.738C47.1751 270.959 46.8966 270.986 46.4992 270.411C45.6573 269.196 44.6048 266.891 44.2734 265.39C44.0703 264.473 44.2581 264.013 43.8819 263.206C43.7656 262.956 43.1338 263.152 43.0324 262.757C42.9598 262.473 43.3556 262.254 43.338 262.158C43.2967 261.934 43.9113 261.686 43.3804 260.983C42.626 259.986 43.012 261.238 42.6048 261.22C42.2655 261.206 43.2838 257.762 43.164 257.262C43.1216 257.085 42.5443 257.061 42.498 256.897C42.3578 256.4 42.3896 255.681 42.2529 255.142C41.9187 253.826 41.4227 253.299 41.3984 251.796C41.3662 249.81 40.6303 248.404 40.276 246.509C40.2077 246.145 40.6087 245.751 40.5337 245.436C40.3817 244.795 39.9069 244.234 39.7321 243.555C39.3956 242.248 39.8449 240.404 39.753 239.341C39.6721 238.411 39.4113 236.902 39.2397 235.747C38.9605 233.866 39.4624 234.48 40.2792 233.297C39.1466 232.932 39.2907 233.253 38.9287 232.036C38.5112 230.631 38.5497 229.802 39.8248 230.58C39.4859 229.745 38.8568 228.722 38.7186 227.828C38.5902 226.997 38.8941 226.233 38.8073 225.408C38.5717 223.175 37.8747 221.962 39.1435 219.795C37.5126 218.96 38.223 216.084 37.9673 214.479C37.6921 212.747 37.0233 211.129 38.3125 210.001C36.9868 209.047 37.5118 206.312 37.5173 204.851C37.5197 204.188 37.7443 203.022 37.6873 202.433C37.6477 202.02 37.3661 201.742 37.2844 201.26C36.9832 199.474 37.6485 197.706 37.2483 195.93C36.7971 193.928 36.7445 192.221 36.5897 190.259C36.4401 188.357 36.146 186.381 36.0195 184.432C35.9261 182.986 35.3617 181.421 35.6217 179.922C35.6421 179.804 35.9865 178.738 35.9964 178.979C35.9803 178.594 35.6999 178.117 35.6869 177.887C35.5946 176.153 35.5616 174.739 35.6359 172.979C35.6323 172.979 35.6284 172.978 35.6249 172.978C35.8397 172.848 35.9555 172.576 35.9645 172.153C37.5872 171.997 39.3622 172.393 41.0022 172.436C42.7693 172.484 44.531 172.395 46.2962 172.314C47.4319 172.261 49.8792 171.723 50.744 172.671C51.3703 173.358 50.9764 176.893 51.0181 177.812C51.0675 178.898 51.6173 180.603 50.9819 181.553C50.5877 182.143 49.6966 182.379 49.2372 183.026C48.9576 183.42 48.7302 184.08 48.5817 184.508C48.1329 185.797 47.9542 187.189 48.0229 188.55C48.3469 194.922 53.4548 197.849 59.1898 195.281C64.1858 193.044 65.5442 186.278 61.2515 182.487C60.2411 181.595 59.1639 181.368 57.8743 181.148C57.0547 181.008 54.8179 181.094 54.2822 180.509C53.7505 179.929 53.8801 178.118 53.8212 177.365C53.7265 176.156 53.2404 174.359 53.5039 173.192C53.0719 172.22 53.3602 171.809 54.3694 171.958C54.6891 171.894 55.0087 171.83 55.328 171.765C56.133 171.619 56.9239 171.443 57.7415 171.387C59.1989 171.287 60.6197 171.46 62.0778 171.265C63.508 171.074 64.91 170.717 66.3429 170.532C67.8655 170.335 69.3609 170.554 70.8677 170.295C73.9952 169.76 77.3555 169.039 80.2816 167.81C81.0654 167.482 82.3935 166.534 83.263 166.69C84.3044 166.878 84.026 167.54 84.326 168.53C85.9895 174.023 89.4461 179.45 93.1045 183.817C96.558 187.939 101.111 191.263 105.228 194.721C107.725 196.817 110.122 199.02 112.439 201.311C114.121 202.974 115.926 205.574 118.099 206.533C118.594 206.551 120.503 206.333 120.852 206.691C121.255 207.103 121.23 207.333 121.07 207.59C121.531 206.375 119.336 206.579 118.099 206.533C118.239 206.769 119.628 209.554 119.971 208.005C120.171 208.124 120.37 208.243 120.57 208.361C119.583 210.542 118.304 212.728 116.916 214.679C115.904 216.102 114.596 217.131 113.688 218.606C112.542 220.467 111.587 222.399 110.135 224.057C107.238 227.364 105.626 231.811 103.101 235.481C101.888 237.245 101.254 238.884 99.9914 240.64C99.0037 242.013 97.4039 243.751 96.8282 245.332C96.5984 245.964 96.845 246.512 96.4241 247.097C96.1582 247.467 95.3704 247.869 94.9989 248.253C93.5236 249.777 92.3729 251.95 91.2156 253.743C89.9829 255.652 89.1241 257.633 88.0799 259.621C87.009 261.662 85.2363 263.107 84.3088 265.294ZM45.9117 274.004C45.1444 274.015 44.8569 274.019 44.7713 273.683C44.7462 273.582 44.7383 273.45 44.7419 273.279C44.7383 273.45 44.7462 273.582 44.7713 273.683C44.8569 274.019 45.1444 274.015 45.9117 274.003V274.004ZM46.0076 271.146C46.0869 271.361 45.609 271.725 44.3386 271.591C45.5968 271.724 46.0782 271.362 46.0076 271.146ZM42.884 278.32C42.9979 278.42 43.1082 278.525 43.2158 278.634C43.1086 278.525 42.9979 278.42 42.884 278.32ZM34.9616 293.319C33.9272 292.958 31.236 292.318 29.4838 291.562C30.2652 291.782 31.0789 291.962 31.3919 292.071C32.5814 292.487 33.7713 292.903 34.9616 293.319C36.6471 287.244 42.9755 284.929 48.3905 282.686C45.7818 282.577 44.8499 280.312 43.2732 278.694C44.8467 280.308 45.7935 282.577 48.3905 282.686C42.9763 284.928 36.6471 287.245 34.9616 293.319ZM29.0424 287.203C28.9831 287.302 28.9242 287.404 28.8649 287.515C28.7034 287.817 28.0955 289.166 27.8403 290.053C27.7888 289.142 28.3296 288.076 29.0424 287.203ZM35.0001 171.858C35.0967 171.819 35.1744 171.813 35.2451 171.819C34.962 171.832 34.885 172.168 34.8728 172.634C34.627 172.373 34.5685 172.03 35.0001 171.858ZM54.6545 185.895C56.4986 186.811 58.2882 187.344 60.0475 188.452C57.8892 190.129 50.9984 192.839 51.2042 187.654C51.2286 187.05 51.5816 185.427 52.1329 185.067C52.9718 184.521 53.9233 185.532 54.6545 185.895ZM33.5435 161.754C41.6642 164.588 51.1249 163.887 59.3787 162.505C68.2464 161.021 77.1003 160.147 85.6907 157.367C85.6993 158.563 86.2181 159.816 85.2701 160.802C84.5271 161.575 82.9162 161.721 81.9345 162.047C79.3662 162.898 77.1604 164.139 74.4758 164.648C71.4689 165.218 68.4651 165.206 65.4323 165.543C64.3339 165.666 63.3011 165.862 62.2694 166.06C60.8408 166.082 59.7216 166.276 58.2953 166.672C53.1933 166.695 48.1258 166.847 43.045 166.239C40.4645 165.93 37.9124 165.552 35.3252 165.288C32.9022 165.042 33.4434 163.997 33.5435 161.754ZM30.4368 139.96C25.6545 141.281 20.7221 140.885 16.0168 139.373C12.6144 138.28 8.10063 136.679 7.38513 132.539C6.9127 129.807 8.54988 129.312 10.4753 128.178C11.3966 127.636 11.8447 127.226 12.4644 126.307C12.8319 125.761 13.1626 124.391 13.5753 124.018C14.581 123.108 17.7553 123.907 19.3288 123.837C21.674 123.732 23.2637 122.943 25.4212 122.248C29.232 121.019 31.6436 119.529 34.6019 116.717C37.4796 113.982 40.8584 111.2 43.1852 107.978C45.7908 104.368 48.2845 100.857 51.1229 97.4145C53.2262 94.8639 57.0421 89.7584 60.816 89.7819C62.7104 89.7937 62.43 91.5802 63.9345 92.4878C65.3082 93.3165 67.1052 92.7399 68.6147 92.5964C67.6196 94.858 66.2393 97.184 66.7278 99.7432C67.0015 101.176 67.1472 101.671 66.5872 103.028C66.0755 104.266 65.5222 105.365 65.2053 106.691C63.971 111.862 63.3871 117.681 63.9046 122.968C64.8008 132.121 67.9373 141.57 74.7986 148.031C76.3628 149.504 78.0832 150.682 79.9988 151.651C81.9097 152.618 82.068 153.625 79.7008 154.056C75.09 154.897 70.4094 155.472 65.7657 156.096C61.1278 156.719 56.4079 157.371 51.7312 157.467C49.4178 157.514 47.1181 157.802 44.8051 157.638C43.6533 157.556 42.5086 157.35 41.3536 157.318C40.3452 157.291 38.8395 157.794 37.901 157.397C36.4319 156.775 37.1623 152.476 37.0547 150.983C36.9306 149.27 35.8495 146.057 36.4916 144.438C36.9428 143.301 38.5988 142.824 39.4569 141.939C40.8647 140.487 42.1964 138.766 42.734 136.786C44.5169 138.225 42.983 139.148 43.5241 140.902C44.1147 142.816 45.2037 142.214 46.0563 140.901C47.4794 138.708 47.384 135.32 46.0229 133.134C45.2351 131.87 43.9553 130.919 42.6425 130.244C41.5798 129.697 39.2283 128.624 38.0518 129.099C34.8587 130.389 38.2571 134.202 39.8802 135.107C39.4902 136.234 36.7244 137.859 35.67 138.34C34.1035 139.054 32.1184 139.496 30.4368 139.96ZM74.2626 105.041C74.3046 105.655 74.3698 106.241 74.5724 106.828C74.9856 108.025 75.8118 109.061 76.9503 109.654C79.1588 110.804 83.638 109.148 85.5795 107.792C85.5795 111.903 86.3167 115.173 87.4963 119.074C88.6375 122.847 90.9733 125.918 92.9604 129.269C93.9909 131.006 94.9369 132.8 96.3919 134.226C97.8708 135.676 98.117 136.232 97.9819 138.37C97.76 141.891 96.0828 144.293 92.9125 145.751C90.4008 147.143 85.2143 148.274 82.478 147.111C79.6014 145.887 76.7995 142.721 74.9365 140.284C70.7043 134.747 68.5578 126.407 68.815 119.523C68.9489 115.938 69.1386 112.269 69.4818 108.696C69.7316 106.093 69.6405 102.351 73.4273 103.524C74.6506 103.903 74.164 103.62 74.2626 105.041ZM88.7926 153.12C89.1579 152.377 92.3714 151.63 92.931 152.065C93.7796 152.727 93.8149 156.586 94.113 157.684C94.5858 159.427 95.2079 161.15 95.9571 162.794C97.5299 166.242 99.7864 169.803 102.463 172.489C105.238 175.271 108.426 177.199 111.795 179.192C112.757 179.762 113.689 180.45 114.678 180.967C115.093 181.184 115.862 181.286 116.188 181.612C116.997 182.42 116.623 184.079 116.614 185.131C116.575 189.347 116.589 193.426 117.148 197.584C113.847 195.03 110.865 191.788 107.926 188.81C104.845 185.687 100.878 183.625 97.956 180.318C95.2978 177.309 93.2055 173.803 91.2525 170.323C90.3972 168.798 88.7675 166.854 88.709 165.072C88.6454 163.15 89.5219 161.116 89.5321 159.126C89.5388 157.717 88.2503 154.226 88.7926 153.12ZM128.427 196.155C128.227 197.428 128.387 200.157 126.616 200.431C125.397 200.62 124.647 199.463 124.2 198.494C122.85 195.565 123.296 191.658 122.792 188.512C122.197 184.797 122.183 181.134 121.722 177.413C121.317 174.133 119.963 169.995 120.701 166.762C121.37 166.746 123.177 173.071 123.567 174.074C124.369 176.139 125.293 177.877 125.988 180.018C126.907 182.854 127.705 185.562 128.129 188.53C128.427 190.615 129.544 194.319 128.427 196.155ZM138.225 182.169C136.572 184.734 134.787 187.408 132.458 189.548C132.458 188.351 131.563 184.46 132.17 183.535C132.892 182.433 136.993 182.383 138.225 182.169ZM74.111 81.1368C75.5153 80.4993 77.0822 80.2986 78.4983 79.64C79.8524 79.0104 80.8581 78.6305 82.3609 78.507C87.5839 78.0785 92.9023 79.4153 97.7349 80.8772C100.395 81.6817 102.493 83.4447 104.74 84.972C107.064 86.5516 108.338 87.9272 109.35 90.6001C111.527 96.3501 112.867 101.787 113.733 107.85C114.612 114.002 113.185 120.22 113.274 126.385C113.361 132.466 113.795 138.798 115.728 144.589C117.222 149.066 119.87 156.274 125.45 156.72C130.748 157.144 135.229 151.683 137.419 147.583C143.209 136.744 145.384 124.354 145.699 112.189C146.516 108.118 146.984 103.729 148.4 99.8247C149.976 102.288 151.261 104.932 152.71 107.471C154.299 110.259 154.197 112.533 154.059 115.699C153.952 118.162 153.084 120.515 152.768 122.967C152.403 125.798 151.733 128.558 151.572 131.417C151.383 134.788 151.571 138.195 151.287 141.558C151.048 144.386 150.424 147.226 149.971 150.028C149.531 152.751 149.476 155.432 149.541 158.146C149.604 160.773 150.512 163.324 152.739 164.73C149.43 168.812 145.305 174.825 139.762 175.792C137.903 176.117 136.168 176.369 134.286 176.507C132.756 176.618 130.968 177.477 129.648 176.523C127.377 174.881 126.929 171.222 126.071 168.829C125.477 167.174 119.59 153.618 116.491 157.459C115.939 158.143 116.069 160.654 115.985 161.618C115.863 163.007 115.919 164.42 115.875 165.814C115.819 167.589 115.661 169.388 115.784 171.163C115.859 172.233 116.502 173.388 115.29 173.646C114.168 173.884 111.804 171.656 110.987 171.079C109.892 170.305 108.711 169.724 107.601 168.978C105.32 167.444 103.51 165.514 101.887 163.326C100.253 161.124 98.798 158.654 97.6921 156.14C97.1305 154.864 96.6719 153.557 96.203 152.247C96.2132 152.276 95.5067 150.624 95.5456 150.508C95.6701 150.139 97.1639 149.525 97.5327 149.234C101.748 145.908 102.591 137.637 101.471 132.799C100.793 129.872 98.5498 127.301 96.9562 124.808C95.4172 122.401 93.789 120.043 92.5119 117.481C91.1041 114.659 90.0163 111.696 88.7534 108.809C88.1439 107.417 87.4127 106.7 88.323 105.424C88.8806 104.642 90.0352 104.322 90.5319 103.466C91.0322 102.605 91.0841 100.943 90.184 100.327C89.1995 99.6534 87.7689 100.595 86.8668 100.962C85.6632 101.451 84.4607 101.688 83.2324 102.064C81.8379 102.492 80.5824 103.438 79.1019 103.438C79.8979 100.697 83.3376 100.957 84.4537 98.4075C85.2159 96.6653 85.1166 93.4236 82.7395 93.1362C81.3898 92.9731 80.3252 94.0026 79.3218 94.6934C78.0008 95.6021 77.0037 95.7719 75.4564 96.0565C74.8866 96.1615 73.9614 96.6955 73.421 96.514C72.5441 96.22 73.0503 96.4015 73.5094 95.6809C74.1919 94.6095 75.8063 93.5631 76.7822 92.781C78.9762 91.0227 82.0169 89.7553 83.9176 87.7108C85.1739 86.3591 85.7912 81.8142 83.4044 81.0889C82.4469 80.7977 80.8895 81.7472 79.9517 82.0373C78.3668 82.5277 76.752 82.9182 75.1882 83.4776C72.4102 84.471 69.7426 85.6511 66.9241 86.5425C68.5299 84.257 71.5797 82.2862 74.111 81.1368ZM168.052 80.4668C168.052 82.0373 168.651 85.023 167.975 86.4508C167.365 87.7367 163.661 88.4533 162.353 88.9445C158.117 90.5354 153.917 92.3066 149.587 93.6239C154.049 87.0161 160.68 83.18 168.052 80.4668ZM167.427 59.1302C166.33 60.7062 164.422 62.8432 162.189 62.0983C159.783 61.2954 157.898 57.6115 159.128 55.2737C160.178 53.2767 163.175 52.0238 165.026 53.5978C165.43 53.9408 165.693 54.819 166.08 55.0875C166.328 55.2592 166.721 54.799 167.024 54.9832C167.919 55.5266 168.263 56.8533 169.555 56.7423C170.152 56.6913 172.067 55.1303 172.459 54.7312C173.508 53.6629 173.143 52.5683 173.308 51.1644C173.537 49.2305 174.871 48.9337 176.407 47.936C177.869 46.9857 179.045 45.5685 180.491 44.6531C182.218 43.5601 181.228 44.9459 182.806 45.0832C183.09 45.1079 183.725 44.1627 184.219 44.1783C184.859 44.1987 185.137 44.6249 185.503 45.0894C186.298 46.0989 185.713 46.4157 187.098 46.6509C188.098 46.8207 188.717 46.0946 189.571 46.1087C190.27 45.3172 191.306 43.6644 192.556 44.1525C193.402 44.483 193.705 46.2553 193.887 46.9955C194.574 49.8013 194.522 53.0987 194.547 55.9763C192.939 54.848 192.731 54.0898 192.229 52.2707C191.902 51.0888 191.114 49.352 190.254 51.1276C190.01 51.6313 190.219 52.404 190.058 52.9576C189.87 53.5998 189.422 53.9161 189.352 54.6167C189.183 56.3158 190.575 56.8983 191.776 57.7255C190.655 58.9334 187.43 58.0219 188.29 60.6007C189.2 63.3258 192.693 61.8168 194.435 61.1331C195.92 66.7624 189.321 69.4749 185.3 71.0144C182.939 71.918 182.015 72.4218 181.69 75.1782C181.412 77.5406 181.73 79.9599 182.597 82.1666C182.944 83.0511 183.277 84.2601 183.75 85.0787C184.152 85.7722 184.952 85.8204 185.222 86.2074C186.215 87.6344 185.5 90.7311 185.384 92.4439C185.066 97.1271 183.607 101.392 182.98 105.962C182.658 108.3 181.695 110.488 181.281 112.798C180.903 114.918 180.753 116.919 178.967 118.435C175.377 121.48 172.6 116.983 171.357 114.026C169.585 109.815 169.408 104.281 169.7 99.7902C170.018 94.909 172.252 90.2195 172.37 85.3743C172.496 80.1927 171.713 75.2735 170.417 70.2636C169.85 68.0741 169.025 66.1139 168.326 63.9969C167.754 62.2661 168.7 60.7031 167.427 59.1302ZM176.759 7.86992C176.76 7.87384 176.76 7.87737 176.76 7.88129C176.738 7.85581 176.715 7.8315 176.69 7.8017C176.716 7.83267 176.738 7.85385 176.759 7.86992ZM176.866 7.38458C176.813 7.01881 176.695 6.55856 176.615 6.35156C176.81 6.47113 177.03 6.5715 177.038 6.69695C177.059 7.05684 176.955 7.2262 176.866 7.38458ZM182.196 8.30861C182.158 8.32978 182.122 8.35291 182.085 8.37329C181.995 8.37329 181.921 8.35448 181.855 8.32507C181.88 8.33056 181.908 8.33487 181.94 8.33723C182.027 8.3435 182.112 8.33056 182.196 8.30861ZM184.982 7.39085C184.482 7.38693 183.957 7.34028 183.374 7.59314C183.467 7.53747 183.559 7.48768 183.653 7.45436C183.914 7.36184 184.466 7.37203 184.982 7.39085ZM156.726 144.321C156.833 141.977 156.831 141.274 158.674 139.762C160.209 138.502 161.695 137.18 163.247 135.939C166.682 133.19 170.353 130.279 174.26 128.227C176.448 127.077 182.42 124.759 180.911 129.299C179.486 133.583 176.738 137.388 174.372 141.194C171.96 145.073 169.548 148.956 167.042 152.775C165.952 154.437 164.802 156.067 163.759 157.757C162.733 159.422 162.627 160.544 160.523 159.855C158.994 159.354 157.266 158.744 155.823 158.092C154.556 157.52 154.632 157.17 154.597 155.682C155.382 151.833 156.544 148.304 156.726 144.321ZM166.529 97.4184C165.997 99.5628 162.176 99.8181 160.116 100.234C159.761 100.305 157.966 100.886 157.631 100.687C156.97 100.294 157.295 99.1571 157.014 98.6067C155.471 95.5943 155.448 99.4456 155.008 100.352C153.806 102.837 151.963 97.8626 151.287 96.6445C150.767 95.7072 150.21 95.2305 150.748 94.4436C151.196 93.7885 153.69 93.3389 154.456 93.0562C157.248 92.0248 160.034 90.9745 162.819 89.9231C164.018 89.4703 167.71 87.0996 167.67 89.3781C167.271 91.9997 167.166 94.8537 166.529 97.4184ZM164.441 123.025C163.266 123.39 160.075 124.853 158.887 124.163C157.883 123.581 158.577 121.538 158.689 120.474C158.902 118.47 158.871 116.29 158.757 114.279C158.589 111.31 158.342 111.076 161.273 110.277C162.405 109.968 165.862 108.296 166.703 109.239C167.096 109.679 166.93 111.079 167.016 111.613C167.203 112.767 167.525 113.896 167.947 114.986C168.676 116.871 169.741 118.563 170.854 120.238C168.857 121.467 166.674 122.33 164.441 123.025ZM157.807 102.029C158.314 101.3 160.839 101.196 161.674 101.019C163.15 100.707 164.626 100.399 166.102 100.087C166.181 101.884 167.197 106.578 165.904 107.874C165.177 108.604 162.745 108.791 161.716 109.045C160.595 109.321 159.471 109.592 158.348 109.862C158.221 108.13 158.115 106.397 157.93 104.67C157.863 104.035 157.394 102.622 157.807 102.029ZM158.098 125.754C158.875 124.861 160.976 124.887 162.143 124.614C164.004 124.179 165.767 123.585 167.528 122.849C168.513 122.437 170.454 121.028 171.544 121.385C171.849 121.485 172.487 122.742 172.719 122.978C173.116 123.382 173.629 123.655 174.09 123.974C175.358 124.853 176.127 125.126 177.623 125.424C169.801 128.63 163.517 134.336 157.048 139.599C156.589 139.214 156.844 135.774 156.894 134.984C156.988 133.519 157.05 132.036 157.16 130.565C157.25 129.358 157.274 126.704 158.098 125.754ZM181.85 156.953C181.614 158.288 181.578 160.121 181.006 161.354C180.482 162.483 180.546 162.404 179.15 162.438C177.387 162.481 175.365 162.776 173.659 162.24C175.183 158.874 176.451 155.217 178.536 152.146C179.192 151.182 180.456 148.714 181.827 148.861C183.201 149.008 182.899 150.387 182.791 151.385C182.587 153.247 182.176 155.109 181.85 156.953ZM188.717 104.455C189.775 97.1953 189.686 90.0975 189.686 82.7861C191.375 83.0095 193.236 82.8688 194.865 83.3467C194.339 85.023 192.823 86.5351 194.324 88.1268C195.848 89.7435 199.401 90.4523 201.461 91.0474C203.874 91.7449 206.334 92.5971 208.814 93.0115C209.928 93.1974 211.142 93.3781 212.266 93.1621C214.046 92.8202 214.203 92.3478 215.374 94.1814C215.38 94.1912 215.39 94.2061 215.396 94.2167C215.058 94.0226 213.986 94.1394 214.271 94.1477C214.313 94.2954 214.376 94.4425 214.413 94.5793C214.097 94.3198 213.398 94.101 213.301 94.0837C212.137 93.8791 210.66 94.4013 209.539 94.66C207.026 95.2406 204.53 95.8734 202.096 96.7331C200.046 97.4568 198.016 98.2672 196.061 99.2178C194.552 99.9517 191.067 101.244 190.591 103.042C189.678 106.49 198.787 109.109 201.008 110.276C203.106 111.378 202.443 113.013 202.467 115.202C202.493 117.58 202.708 119.936 202.543 122.309C202.416 124.148 202.275 123.863 200.44 123.83C199.067 123.805 197.693 123.75 196.32 123.831C194.384 123.947 192.395 124.215 190.578 124.919C187.859 125.972 182.637 130.985 187.841 132.513C189.983 133.142 192.746 132.912 194.942 132.76C196.847 132.629 199.831 131.762 201.669 132.417C202.627 132.145 202.972 132.493 202.706 133.461C202.75 134.125 202.794 134.788 202.838 135.451C202.927 136.786 203.016 138.12 203.104 139.455C203.286 142.187 203.468 144.918 203.649 147.65C202.052 145.387 199.856 140.923 196.453 141.433C193.533 141.871 191.806 146.399 190.866 148.735C190.102 150.633 189.608 152.623 189.091 154.599C188.594 156.499 188.413 159.186 187.505 160.907C186.611 162.603 185.368 162.034 183.536 162.209C181.247 162.427 182.17 161.145 182.534 159.2C183.088 156.237 185.049 151.124 183.158 148.362C180.743 144.837 177.331 151.369 176.404 153.133C175.536 154.783 174.797 156.492 174.133 158.232C173.704 159.355 173.357 161.781 172.25 162.395C170.895 163.149 168.746 161.944 167.502 161.55C166.039 161.088 164.442 160.895 162.94 160.592C167.215 153.901 171.66 147.311 175.808 140.542C177.881 137.158 180.496 133.604 181.635 129.775C181.851 129.05 182.116 128.357 182.028 127.586C181.951 126.928 180.962 125.893 181.025 125.436C181.118 124.759 182.477 124.194 183.113 123.482C185.322 121.01 185.877 118.067 186.563 114.924C187.309 111.503 188.213 107.911 188.717 104.455ZM197.062 83.7062C200.318 83.0048 204.017 84.8752 206.74 86.3849C208.536 87.3811 213.33 89.4636 213.515 91.9032C213.465 91.2415 209.056 91.6543 208.185 91.6759C204.46 90.8694 200.488 89.7823 197.013 88.1754C195.747 87.5901 194.261 87.0169 194.722 85.5146C195.024 84.5275 196.139 83.9049 197.062 83.7062ZM193.286 131.702C191.228 131.583 183.755 131.664 187.516 127.934C189.87 125.598 194.205 125.091 197.337 125.079C198.459 125.074 199.565 125.162 200.679 125.276C200.985 125.313 201.291 125.349 201.596 125.385C202.53 125.2 202.821 125.586 202.471 126.544C202.638 127.105 202.906 130.43 202.414 130.898C201.76 131.518 199.68 131.244 198.913 131.304C197.03 131.451 195.175 131.713 193.286 131.702ZM204.214 159.962C198.8 160.768 193.394 161.797 187.904 161.883C188.723 157.881 189.678 153.889 191.17 150.077C192.124 147.641 193.855 142.382 197.192 142.641C199.856 142.848 202.965 147.411 203.707 149.742C204.675 152.781 204.214 156.801 204.214 159.962ZM218.12 99.1383C218.012 99.6926 215.582 100.69 215.062 100.992C211.314 103.17 207.974 106.398 205.731 110.067C205.481 108.651 205.521 105.966 204.334 104.96C202.245 103.189 202.674 107.156 202.424 108.368C202.19 109.504 202.481 109.32 201.501 109.421C200.632 109.511 198.413 107.883 197.611 107.473C195.393 106.338 193.268 105.104 191.137 103.817C192.902 100.902 198.107 99.5636 201.07 98.3977C205.33 96.7218 209.528 95.8644 214.035 95.1705C214.789 95.5625 214.887 94.6804 215.45 94.4828C215.481 94.4374 215.492 94.3989 215.493 94.3633C216.155 95.3469 218.281 98.3122 218.12 99.1383ZM223.634 138.422C225.732 148.059 226.254 158.084 228.904 167.605C231.423 176.655 233.66 185.665 236.57 194.592C238.246 199.734 239.803 204.928 242.043 209.866C243.606 213.31 244.846 220.655 248.653 222.267C251.145 223.322 252.25 222.388 251.984 219.861C251.753 217.663 250.613 216.282 249.672 214.383C249.344 213.721 248.276 211.855 248.393 211.153C248.537 210.281 248.759 210.375 249.669 209.943C251.601 209.027 253.527 208.407 255.584 207.877C254.754 209.163 253.096 211.004 252.963 212.577C252.853 213.876 253.786 216.258 255.076 216.757C256.296 217.227 257.731 216.234 258.775 215.629C259.984 214.927 261.136 214.732 262.467 214.234C260.771 216.677 257.993 218.623 259.183 221.984C260.451 225.569 264.388 222.637 266.906 222.232C266.187 225.009 262.997 228.176 260.702 229.722C259.161 230.759 257.49 231.695 255.836 232.535C255.196 232.86 254.355 233.059 253.768 233.446C253.544 233.593 253.168 234.218 252.965 234.316C250.109 235.695 246.214 236.047 243.107 236.71C239.684 237.44 236.738 237.618 233.213 237.449C230.298 237.309 227.068 235.518 224.632 234.014C222.779 232.871 222.509 231.474 221.932 229.456C220.976 226.111 220.121 222.745 219.208 219.388C218.422 216.495 218.056 213.715 217.523 210.779C216.394 204.557 215.874 198.236 214.663 192.025C213.46 185.856 213.058 179.606 212.725 173.3C212.565 170.262 212.07 167.164 211.919 164.186C211.797 161.763 211.839 159.325 211.852 156.834C211.861 155.083 211.24 153.333 211.283 151.575C211.32 150.021 211.463 148.621 211.299 147.052C210.949 143.707 210.675 140.402 210.412 137.053C209.899 130.524 208.389 124.081 207.787 117.58C207.527 114.768 210.614 112.072 212.704 110.435C214.933 108.69 216.721 106.239 219.173 104.866C220.082 116.141 221.225 127.359 223.634 138.422ZM186.702 258.976C184.284 260.054 181.867 261.133 179.448 262.209C177.669 263 175.336 264.626 173.382 264.479C174.771 262.598 175.647 260.445 177.128 258.618C178.608 256.793 179.828 254.854 181.166 252.926C182.924 255.07 184.721 257.034 186.702 258.976ZM187.216 249.514C190.874 247.585 196.072 243.919 200.359 244.61C203.447 245.108 206.945 247.369 208.81 249.859C209.685 251.026 210.56 252.115 211.561 253.26C212.478 254.309 212.949 254.172 212.146 255.266C211.53 256.108 210.075 256.677 209.129 257.002C209.129 255.162 209.701 253.316 207.489 253.498C206.617 253.57 205.599 253.778 204.729 253.92C203.979 254.043 203.545 254.368 202.906 254.519C202.224 254.679 201.41 254.49 200.703 254.546C199.486 254.641 198.513 255.129 197.36 255.384C194.975 255.912 192.962 256.642 190.64 257.422C189.578 255.799 188.686 253.847 187.243 252.52C185.63 251.036 184.941 250.713 187.216 249.514ZM155.835 6.37665C156.187 6.3398 156.588 6.12144 156.859 5.66628C156.384 6.4629 156.104 6.49897 155.835 6.37665ZM144.87 7.64528C145.296 7.72251 145.716 7.81699 146.068 7.98204C146.414 8.14434 146.601 8.32938 146.786 8.49169C146.7 8.45405 146.606 8.41367 146.501 8.36976C146.044 8.17884 145.459 7.83424 144.87 7.64528ZM137.558 68.0549C137.529 68.0161 137.502 67.9804 137.475 67.9451C137.502 67.9804 137.529 68.0161 137.558 68.0549H137.558ZM136.136 68.2615C136.003 68.2125 135.889 68.1317 135.8 68.0141C135.889 68.1317 136.003 68.2125 136.136 68.2615C136.225 68.2937 136.323 68.3121 136.429 68.3172C136.323 68.3121 136.225 68.2937 136.136 68.2615ZM135.568 67.0979C135.567 67.2669 135.58 67.4155 135.606 67.546C135.58 67.4155 135.567 67.2669 135.568 67.0979ZM137.289 67.7276C137.255 67.6911 137.221 67.6574 137.187 67.626C137.221 67.6574 137.255 67.6915 137.289 67.7276ZM136.996 67.4723C136.942 67.4355 136.887 67.4022 136.831 67.3743C136.887 67.4022 136.942 67.4355 136.996 67.4723ZM197.805 9.23224C197.883 9.25498 197.951 9.26478 198.015 9.26831C197.929 9.27694 197.859 9.264 197.805 9.23224ZM199.686 10.4926C199.457 10.2805 199.322 10.0728 199.252 9.8646C199.287 9.88655 199.326 9.90655 199.37 9.9238C199.438 9.85637 199.506 9.78894 199.574 9.72111C199.48 9.89674 199.447 10.0661 199.52 10.2182C199.871 10.9521 200.299 9.83637 200.829 10.3884C200.432 10.3397 199.949 10.4926 199.686 10.4926C199.075 11.3308 198.464 12.1694 197.853 13.0076C198.68 13.4204 198.939 12.9107 199.401 13.663C199.424 13.6995 199.444 13.7889 199.461 13.9069C199.269 13.3584 198.768 13.4639 197.853 13.0076C198.464 12.1694 199.075 11.3308 199.686 10.4926ZM201.269 12.338C201.325 12.2956 201.36 12.2372 201.382 12.16C201.396 12.1082 201.405 12.0482 201.411 11.9788C201.405 12.0482 201.396 12.1082 201.382 12.16C201.36 12.2372 201.325 12.2956 201.269 12.338C201.231 12.3662 201.183 12.3874 201.123 12.4019C201.183 12.3874 201.231 12.3662 201.269 12.338ZM201.442 11.4469C201.434 11.5562 201.43 11.6546 201.426 11.7428C201.43 11.6546 201.434 11.5562 201.442 11.4469ZM200.538 13.6795C200.565 13.7281 200.594 13.772 200.625 13.8128C200.594 13.7708 200.564 13.7281 200.538 13.6795ZM199.62 16.9781C198.746 16.5104 199.505 15.9216 199.541 15.203C199.544 15.1391 199.545 15.085 199.547 15.0261C199.553 15.1998 199.554 15.3421 199.55 15.4119C199.491 16.4273 198.77 16.7099 200.082 17.0177C200.171 17.0389 200.288 17.0498 200.42 17.0549C200.084 17.0792 199.792 17.0706 199.62 16.9781ZM213.163 24.524C213.109 24.1088 215.051 23.2028 215.301 23.0915C214.994 23.2283 213.111 24.1304 213.163 24.524ZM215.372 20.8475C215.359 20.842 215.345 20.8404 215.332 20.8346C215.334 20.804 215.331 20.7754 215.331 20.7456C215.34 20.7832 215.352 20.8181 215.372 20.8475ZM216.406 24.2006C216.417 24.1555 216.438 24.0351 216.46 23.8916C216.494 24.0688 216.533 24.2351 216.568 24.3801C216.525 24.3237 216.475 24.2645 216.406 24.2006ZM214.897 24.1751C214.896 23.4714 215.117 23.6215 215.254 23.6427C215.129 23.8313 214.897 23.8666 214.897 24.1751ZM212.848 25.7205C213.052 25.6805 213.224 25.7977 213.382 25.933C213.037 25.8416 212.754 25.7385 212.848 25.7205ZM211.182 29.74C211.149 29.751 211.121 29.7581 211.091 29.7667C211.121 29.7581 211.149 29.751 211.182 29.74ZM211.35 29.6797C211.327 29.6887 211.307 29.695 211.286 29.7028C211.307 29.695 211.327 29.6887 211.35 29.6797ZM211.035 29.7828C210.992 29.7934 210.953 29.8008 210.915 29.8059C210.953 29.8008 210.992 29.7934 211.035 29.7828ZM212.316 54.1078C212.402 53.9628 212.587 53.9149 212.797 53.8918C212.533 53.9926 212.33 54.2086 212.282 54.5214C212.23 54.4058 212.216 54.2744 212.316 54.1078ZM213.843 49.6084C213.829 49.6041 213.814 49.5982 213.8 49.5971C213.372 49.5637 213.186 49.8405 213.14 50.2635C213.169 49.8946 213.292 49.5935 213.612 49.4955C213.595 49.4622 213.581 49.4312 213.565 49.3987C213.647 49.4728 213.74 49.5426 213.843 49.6084ZM213.336 51.8866C213.327 51.8364 213.317 51.7815 213.305 51.7246C213.353 51.9258 213.408 52.1261 213.464 52.3186C213.408 52.1637 213.36 52.0159 213.336 51.8866ZM213.709 44.8817C213.674 44.8977 213.634 44.9118 213.593 44.924C213.634 44.9118 213.674 44.8981 213.709 44.8817ZM213.813 44.8197C213.789 44.8377 213.761 44.8534 213.732 44.8683C213.761 44.8534 213.788 44.8374 213.813 44.8197ZM213.573 44.9307C213.524 44.944 213.47 44.955 213.41 44.9624C213.469 44.955 213.524 44.9444 213.573 44.9307ZM214.013 39.8169C214.018 40.0059 214.019 40.1945 214.024 40.3728C213.994 40.1976 213.991 40.0247 214.013 39.8169ZM298.775 292.027C297.607 290.977 293.694 290.907 292.14 290.612C295.502 287.397 298.028 279.268 291.607 278.224C290.185 277.993 289.783 278.541 289.458 276.931C289.258 275.945 289.665 275.036 289.175 274.054C288.013 271.721 283.598 271.981 281.392 271.646C281.919 269.793 283.211 266.484 281.264 264.98C279.728 263.794 276.53 265.377 274.897 265.885C270.487 267.258 266.006 268.824 262.286 271.589C260.618 269.339 258.875 267.118 257.476 264.685C256.142 262.363 255.316 259.797 254.061 257.433C252.804 255.063 251.469 252.269 249.713 250.232C248.226 248.507 246.187 248.336 244.225 247.513C239.248 245.425 234.935 245.545 229.735 246.316C224.537 247.088 220.031 250.128 215.628 252.78C213.9 246.954 209.903 240.624 203.707 238.827C200.927 238.02 198.001 238.799 195.459 240.067C192.309 241.638 189.832 244.31 186.751 245.797C190.264 239.785 194.698 234.129 198.559 228.451C200.676 225.337 203.351 222.557 205.419 219.384C207.527 216.149 209.08 212.553 210.609 209.022C211.901 212.317 212.12 215.784 213.307 219.091C214.396 222.126 215.142 225.241 216.38 228.226C217.673 231.343 218.816 234.417 220.564 237.318C221.561 238.972 224.018 244.126 225.829 240.82C229.86 243.542 233.751 245.186 238.792 245.067C241.1 245.012 243.671 244.939 245.88 244.423C248.124 243.898 250.267 243.192 252.497 242.689C254.261 242.291 255.874 241.214 257.478 240.416C259.324 239.499 261.152 237.85 262.577 236.403C264.342 234.612 266.165 232.888 267.939 231.108C269.694 229.347 269.568 227.55 270.507 225.361C271.487 223.077 271.907 221.059 270.611 218.754C269.661 217.066 267.981 217.299 267.588 215.589C267.215 213.967 267.577 212.438 266.558 210.95C265.785 209.821 263.002 209.066 262.993 207.913C262.985 206.96 263.975 206.117 263.936 204.974C263.901 203.954 263.401 202.313 262.852 201.449C261.822 199.825 260.252 199.77 258.481 200.266C254.203 201.465 250.009 204.548 247.066 207.786C243.033 196.739 239.856 185.451 236.905 174.152C235.602 169.161 234.581 164.105 233.752 159.016C232.932 153.977 231.689 148.902 231.134 143.837C230.801 140.8 229.867 137.957 229.43 134.957C229.068 132.472 228.827 129.969 228.471 127.483C227.683 121.976 226.59 116.553 225.739 111.059C225.269 108.023 224.207 105.366 223.39 102.442C222.69 99.9349 222.273 97.7908 221.102 95.4222C218.868 90.9043 216.571 85.3704 212.232 82.4995C208.373 79.9461 204.629 77.8123 199.926 77.2893C197.167 76.9824 194.944 77.6308 192.246 77.9283C189.857 78.1922 187.811 79.5122 185.481 79.9877C185.481 77.7739 185.265 77.7139 187.286 76.9263C188.45 76.4727 189.586 75.9744 190.771 75.58C192.021 75.1645 192.967 74.7587 194.032 73.995C195.29 73.093 194.497 73.3795 196.004 73.6912C198.379 74.1828 197.679 73.6124 199.241 72.4292C200.151 71.7404 201.078 72.1607 202.142 72.2983C203.135 72.4265 204.769 72.8652 205.526 71.9717C206.102 71.2923 205.474 70.1264 205.899 69.3878C206.569 68.2219 208.49 68.2752 209.515 67.4919C210.638 66.6353 210.739 65.6698 210.496 64.3525C210.327 63.4406 208.89 61.415 208.971 60.6305C209.025 60.1079 209.3 59.955 209.656 59.9123C212.465 60.0542 212.329 59.6308 211.644 57.1418C211.604 57.5103 211.579 57.8239 211.551 58.0941C211.544 57.7075 211.547 57.3464 211.644 57.1418C211.717 56.9873 211.98 56.8878 212.218 56.7635C212.155 56.8258 212.09 56.8893 212.012 56.9607C212.132 57.4895 212.167 58.8722 212.675 59.2482C213.039 59.5175 214.314 59.4901 214.571 59.04C215.109 58.0999 213.259 57.5668 213.187 56.8689C215.312 56.6913 214.587 55.6556 213.476 54.5987C213.432 54.3086 213.6 54.1713 213.982 54.187C213.792 53.9886 213.557 53.8761 213.323 53.8397C213.489 53.8122 213.632 53.7636 213.708 53.646C213.775 53.5425 213.779 53.3998 213.755 53.2395C213.796 53.363 213.832 53.4688 213.858 53.5504C215.691 54.2901 214.749 50.3643 213.989 49.6951C214.048 48.606 214.106 47.5169 214.163 46.4278C213.641 46.7728 213.242 47.3107 213.106 47.8721C213.125 47.3538 213.427 46.9136 214.163 46.4278C212.985 45.9092 212.869 45.8461 214.135 45.7355C215.184 46.6917 215.037 45.8978 215.687 45.3137C215.648 45.3486 216.67 44.2375 216.602 44.4073C217.087 43.2061 216.551 40.6712 214.595 41.4968C215.657 42.4479 214.591 42.6231 214.22 43.4409C214.207 43.4684 214.197 43.4974 214.187 43.526C214.207 43.428 214.233 43.3335 214.273 43.2465C214.929 41.8379 215.084 42.9195 214.363 41.3169C214.362 41.3157 214.362 41.3145 214.361 41.313C214.552 41.4094 214.85 41.389 215.324 41.1895C215.914 40.4685 216.093 40.7633 216.41 39.8346C216.687 39.0219 216.558 38.4675 216.005 38.1653C216.068 38.1818 216.131 38.2002 216.195 38.2163C216.439 37.5914 216.1 36.9958 215.534 36.7085C215.305 37.0825 215.076 37.4569 214.849 37.8313C214.952 37.8646 215.056 37.8944 215.16 37.9258C215.158 37.9258 215.157 37.9258 215.156 37.9254C214.431 37.8415 214.137 37.9716 214.028 38.3064C213.992 38.1563 213.982 38.0085 214.065 37.8744C214.154 37.7313 214.78 37.9434 214.849 37.8313C215.973 35.9895 214.785 34.4562 212.977 33.5181C212.29 33.1617 210.935 33.1496 210.693 32.3157C210.521 31.7265 211.375 30.3007 211.539 29.6017C212.801 29.023 210.471 28.6843 210.455 28.6819C210.386 29.5064 210.431 29.8714 210.907 29.8075C210.427 29.8726 210.386 29.5036 210.455 28.6819C211.14 28.787 213.161 28.5984 214.152 27.9249C215.792 27.9716 216.636 28.2558 217.631 26.8339C216.659 26.4305 215.514 26.6477 214.641 26.0282C214.682 26.2145 214.715 26.3834 214.736 26.5395C214.66 26.3089 214.496 26.1106 214.275 25.9224C214.418 26.0447 214.344 26.0839 214.175 26.0784C214.207 26.0349 214.241 25.9847 214.275 25.9224C214.334 25.2324 214.842 25.5135 215.355 25.5566C215.342 25.3347 215.254 25.1481 215.159 24.9631C215.253 25.1407 215.341 25.3226 215.355 25.5566C215.681 25.3496 216.006 25.1426 216.332 24.9352C216.509 24.8839 216.615 24.8122 216.657 24.722C216.657 24.7236 216.657 24.7255 216.658 24.7271C218.214 25.1912 217.74 21.8958 217.024 21.9127C216.832 21.9174 216.693 21.9879 216.591 22.0997C216.613 21.7958 216.665 21.4744 216.789 21.0243H216.788H216.789C216.862 20.8306 216.935 20.637 217.008 20.4433C216.615 20.4684 215.347 19.7106 215.323 20.6146C215.299 20.4515 215.235 20.2994 215.124 20.161C215.237 19.1609 214.649 19.246 213.737 18.9665C213.398 18.8626 213.024 18.2138 212.642 18.4863C212.068 18.8955 212.414 19.2809 212.782 19.5726C212.728 19.9125 212.565 20.1842 212.294 20.3872C212.253 20.3484 212.213 20.3186 212.174 20.2884C212.428 20.1399 212.642 19.9035 212.782 19.5726C211.609 18.6446 211.114 19.2519 210.212 19.9983C210.571 20.2975 210.988 20.4586 211.387 20.4751C211.366 20.519 211.346 20.5633 211.328 20.6158C210.876 20.5593 210.503 20.3535 210.212 19.9983C211.17 19.2052 211.084 18.7191 209.918 18.2487C209.524 18.0899 209.275 18.4435 208.787 18.2565C208.545 18.1636 208.371 17.7418 208.135 17.6022C206.371 16.5582 204.252 17.1525 202.373 16.9052C202.608 16.875 202.819 16.8456 202.978 16.8244C202.792 16.1768 202.288 15.8965 201.757 15.6993C201.758 15.3304 201.759 14.9611 201.758 14.5922C201.683 14.5753 201.611 14.5675 201.541 14.5655C201.664 14.4683 201.737 14.3362 201.72 14.1111C201.266 14.275 200.882 14.1543 200.634 13.8261C201.127 14.4561 202.088 14.1264 202.381 13.3184C202.689 12.4716 202.03 11.9028 201.457 11.2744C201.47 10.6706 201.214 10.4534 200.882 10.3954C201.48 9.22088 201.615 9.80344 200.972 8.33448C200.919 7.34459 200.079 7.70409 199.513 8.33997C199.572 8.19413 199.634 8.04437 199.692 7.88834C199.246 7.85816 198.801 7.82797 198.355 7.797C198.469 8.15846 198.718 8.80218 198.39 9.10914C198.608 8.79512 198.453 8.10906 198.355 7.797C197.809 7.49278 197.264 7.18856 196.718 6.88356C196.764 6.98117 196.89 7.34851 197.045 7.76446C196.625 7.17994 196.283 6.81769 195.711 6.21592C195.431 5.92228 194.338 4.51291 194.035 4.4251C192.182 3.88801 190.78 7.5116 188.519 7.01567C187.186 6.72321 187.809 6.37822 186.549 6.62285C185.859 5.72705 181.358 7.13563 181.185 7.98792C181.27 7.96518 181.334 7.95578 181.386 7.95421C180.879 8.13611 180.438 8.41603 179.946 8.60538C178.714 9.08053 179.447 9.20441 178.048 8.40466C177.571 8.1318 177.395 8.21726 177.209 8.19217C177.812 7.92167 178.102 6.0493 178.11 5.38167C178.132 3.78647 177.921 4.06638 178.544 2.92242C177.968 2.91341 177.563 2.8644 177.26 3.00122C177.347 2.72993 177.409 2.46374 177.407 2.20617C177.718 1.36251 177.444 0.3687 176.48 0.133871C175.023 -0.221706 174.737 1.87059 175.793 2.21323C174.783 1.88549 175.188 0.561974 173.812 0.382814C174.317 0.356939 174.63 0.452204 175.1 1.03007C175.256 0.716437 175.411 0.4032 175.567 0.0895708C174.472 -0.0249038 173.966 -0.117816 173.081 0.396535C172.216 0.550997 171.606 1.17786 170.953 1.78983C169.173 3.45638 167.576 5.08293 165.938 6.89101C165.096 5.16252 164.167 3.90408 162.802 5.83839C161.569 7.58412 160.571 9.99711 159.93 12.0271C158.649 11.4394 159.189 11.2477 158.652 10.2958C159.21 11.223 158.643 11.4363 159.93 12.0271C160.057 11.6221 160.186 11.2167 160.314 10.8118C159.192 9.53411 159.24 8.2647 158.026 6.90237C157.891 7.3391 158.278 7.96126 158.346 8.35487C158.421 8.7912 157.937 9.09425 158.047 9.56351C158.501 9.39768 158.606 9.49765 158.621 9.67916C158.605 9.49804 158.498 9.39886 158.047 9.56351C157.867 8.79708 158.314 8.38976 158.065 7.53394C157.964 7.18817 157.817 6.9353 157.641 6.69067C158.413 5.39892 155.915 4.5039 155.333 5.27268C155.26 5.36951 155.211 5.45968 155.172 5.54671C154.196 5.10802 153.895 6.04146 153.44 6.74242C153.332 6.96157 153.224 7.18111 153.115 7.40065C152.541 7.87227 152.008 8.85903 151.576 9.50471C150.651 10.8851 150.263 12.9052 149.131 14.0555C149.169 13.3145 149.573 11.6719 148.243 12.3344C148.682 12.1157 148.745 11.8499 148.649 11.5417C148.731 11.5884 148.821 11.6307 148.925 11.6652C149.112 11.6836 149.3 11.7017 149.487 11.7197C149.463 10.6706 148.775 9.98103 147.963 9.42317C147.963 9.6972 147.954 9.97907 147.972 10.2492C147.968 10.2394 147.963 10.23 147.959 10.2202C147.602 9.36593 147.753 9.11424 147.444 8.85236C147.566 8.88137 147.705 8.90215 147.875 8.91038C146.881 7.22972 145.56 6.96118 143.732 7.43476C143.857 7.46416 143.987 7.48925 144.12 7.51395C143.913 7.51434 143.713 7.55119 143.525 7.64254C142.816 7.98792 141.766 9.97319 141.274 10.6616C139.541 13.0844 138.734 16.0529 137.826 18.8532C137.572 19.6412 137.185 21.4881 136.199 21.7523C135.054 22.0597 133.841 20.1944 132.833 19.571C129.608 17.5759 128.004 21.158 127.507 23.9999C126.766 25.2571 126.937 26.2262 128.006 26.8217C127.706 26.3893 127.569 25.9287 127.512 25.4535C127.654 26.2611 128.328 26.541 128.449 26.8868C128.516 27.0766 128.609 28.2276 128.607 28.4589C129.158 28.8701 129.199 29.1739 128.731 29.3704C128.444 29.566 128.176 29.7847 127.926 30.0262C127.153 30.8409 127.161 31.9703 126.453 32.7626C125.654 33.6588 124.92 33.2629 124.543 34.7362C123.896 37.2601 125.489 41.0711 128.355 41.3126C128.015 42.3064 127.575 43.3143 127.32 44.3336C126.983 45.6896 127.007 45.8269 127.646 47.1241C122.879 46.4157 123.252 51.4608 125.969 53.9389C126.612 54.5261 127.317 54.8919 128.148 55.1522C128.749 55.3408 130.564 55.2357 130.996 55.8057C131.907 57.0077 129.874 58.5704 129.694 59.9115C129.675 60.0487 129.668 60.2844 129.674 60.558C128.923 61.4765 128.96 61.5526 130.033 62.4115C130.62 63.1682 132.436 62.9871 132.988 63.7108C133.837 64.8245 131.943 66.6173 132.893 67.9185C133.647 68.9527 134.435 68.3082 135.643 68.7465C136.228 69.0134 136.813 69.2812 137.397 69.5501C137.671 69.36 137.97 69.2404 138.295 69.1922C138.978 69.5356 138.326 70.1405 139.187 70.3428C139.634 70.484 140.666 71.0195 141.118 70.7419C140.478 71.1355 140.048 72.1093 139.68 73.1796C139.33 73.752 139.007 74.382 139.136 74.8548C138.92 75.5103 138.699 76.1081 138.436 76.5245C139.923 76.7511 139.748 78.1518 140.778 78.921C142.169 80.1116 142.401 79.0064 142.072 78.4258C142.211 78.4964 142.354 78.5881 142.502 78.6928C142.529 78.7124 142.231 79.4196 142.524 79.5847C142.935 79.8164 142.934 79.5839 143.362 79.5792C143.764 79.5745 144.347 78.9711 144.838 78.9206C145.1 78.8939 145.873 79.2515 146.033 79.1452C146.478 78.85 146.444 78.5262 146.27 78.1345L146.469 78.5325C146.949 79.7842 147.19 79.5024 147.917 79.1436C147.721 79.2405 148.487 78.6689 148.644 78.7148C148.286 77.7225 146.866 77.8268 145.992 77.5786C146.546 77.7358 147.446 77.7417 147.955 77.9613C148.809 78.3286 148.539 78.7022 149.549 78.8167C149.975 78.8649 151.71 78.3937 152.016 78.0848C152.045 78.0554 152.065 78.0197 152.081 77.9801C152.238 77.7288 152.396 77.4771 152.552 77.2254C153.194 77.2999 152.499 78.2855 153.506 77.8934C154.258 77.5998 153.892 77.1917 153.652 76.7463C153.574 76.6005 153.486 76.4966 153.393 76.4217C154.432 76.6703 155.667 78.0683 157.085 77.6766C157.885 77.4559 157.929 76.9102 158.516 76.3998C159.299 75.718 159.542 75.8231 160.491 75.4934C161.065 75.2935 161.677 74.8524 162.255 74.7497C163.197 74.5823 162.937 74.6862 163.717 75.0829C164.184 75.3201 164.449 75.7651 165.038 75.8513C165.576 75.9297 166.421 75.3111 166.857 75.4812C168.041 75.9442 167.74 77.6069 167.807 78.703C161.81 76.7946 154.8 79.845 150.386 84.0339C149.189 85.1696 148.406 86.5163 147.342 87.7512C146.188 89.0912 145.1 89.7 144.938 91.6092C144.798 93.2554 145.54 94.2437 144.954 95.8252C144.392 97.3412 143.778 98.6976 143.367 100.278C141.403 107.825 141.342 115.662 139.886 123.314C138.539 130.393 136.616 136.7 133.446 143.19C131.977 146.199 130.745 148.04 127.522 149.309C124.915 150.335 123.006 148.99 121.732 146.65C118.303 140.351 117.815 133.873 117.857 126.848C117.876 123.473 118.262 120.097 118.587 116.742C118.924 113.264 118.671 110.015 118.429 106.542C117.944 99.5797 116.355 93.6082 113.964 87.06C112.831 83.9543 111.875 80.9266 109.145 78.9061C107.615 77.7747 106.079 76.3594 104.287 75.3809C102.853 74.598 101.999 73.8908 100.363 73.5403C99.2877 73.3098 98.3075 72.9538 97.2688 72.6194C94.8179 71.8314 91.983 71.5875 89.4119 71.5962C83.4091 71.6166 76.8211 73.6371 71.4175 76.2281C68.7271 77.5183 65.8053 79.4392 64.0331 81.8867C63.3018 82.897 62.8039 84.017 62.3071 85.1536C61.7126 86.512 61.8995 86.7605 60.6405 86.7131C59.8519 86.6833 58.9699 85.9537 58.0667 85.9149C57.0779 85.8726 56.3541 86.2168 55.4336 86.472C54.2653 86.7958 53.1669 87.0859 52.1282 87.7571C49.6075 89.3844 47.4755 91.9781 45.5493 94.241C42.0228 98.3828 38.8325 103.025 35.5334 107.243C32.2845 111.397 28.3378 115.083 23.2916 116.966C21.3666 117.685 19.235 117.83 17.2695 118.411C16.4071 118.666 15.3625 119.342 14.4589 119.33C13.0389 119.312 13.1481 118.617 12.6564 117.49C12.072 116.152 11.2266 115.11 10.1702 114.11C5.48326 109.673 -0.345644 116.247 0.0160359 121.311C0.227703 124.27 2.4457 126.221 2.36755 129.125C2.29411 131.842 2.45591 134.598 3.4251 137.176C4.51289 140.068 7.18799 143.067 9.54696 145.034C11.7324 146.857 14.4695 147.243 17.2224 147.548C18.4841 147.687 19.7934 148.062 21.0135 148.04C22.0589 148.021 23.0096 147.598 24.077 147.641C25.8874 147.714 26.8577 147.702 28.5542 147.06C29.8124 146.583 30.9478 146.319 32.3179 146.35C32.3179 149.237 32.5009 152.06 32.7491 154.937C32.7817 155.317 33.0444 156.304 32.8696 156.643C32.654 157.06 32.398 156.785 32.1294 157.086C31.4885 157.803 31.0239 158.155 30.5441 159.087C29.2277 161.643 28.8248 164.501 29.3377 167.351C29.7402 169.585 31.0542 170.506 30.7435 172.879C30.3783 175.668 29.699 178.515 29.5678 181.322C29.505 182.661 29.4893 183.672 29.2057 184.971C29.042 185.725 28.491 187.083 28.5354 187.845C28.5633 188.315 29.0624 188.524 29.0632 188.955C29.0643 189.331 28.6296 189.281 28.5998 189.604C28.5087 190.576 28.4557 191.456 28.4765 192.434C28.504 193.757 28.3748 195.071 28.4242 196.393C28.4619 197.4 28.2275 199.785 29.3581 199.392C29.0565 200.103 28.9764 200.789 28.9465 201.472C28.9312 201.406 28.9245 201.338 28.9304 201.269C28.9995 200.48 29.0227 200.183 29.3581 199.392L28.7129 199.616C28.3182 200.634 28.8028 201.631 28.9112 202.644C28.9077 202.746 28.9041 202.847 28.8978 202.949C28.8067 204.421 28.9179 205.862 29.0278 207.33C29.2788 210.682 29.397 214.419 30.3037 217.432C31.2977 220.733 30.98 224.884 31.3632 228.521C31.8019 232.683 32.5131 236.778 33.0428 240.925C33.516 244.628 33.7442 248.645 34.5559 252.251C35.2215 255.204 35.7847 258.08 36.1417 261.184C36.6357 265.489 38.2069 268.768 39.936 272.679C40.6672 274.334 40.7174 274.308 39.3752 275.517C38.8128 276.023 38.3361 276.616 37.7631 277.111C36.616 278.102 35.3629 278.679 33.8565 278.858C30.1482 279.297 26.4018 280.615 24.3185 283.812C22.3051 286.902 23.6097 290.522 25.1165 293.671C23.1278 293.839 17.7498 293.718 19.008 297.34C19.868 299.816 24.454 298.987 26.4796 299.014C29.4394 299.054 32.42 298.909 35.3539 298.868C36.6895 298.85 36.8257 298.711 38.1264 299.221C39.352 299.7 40.2874 299.753 41.6136 299.665C43.0258 299.573 44.4371 299.781 45.8057 299.578C47.5309 299.322 48.6041 299.106 50.3371 299.413C51.5898 299.635 52.594 299.526 53.844 299.361C55.2294 299.177 56.5414 299.288 57.9709 299.25C61.3097 299.16 64.6229 299.223 67.964 299.26C71.2117 299.296 74.4617 298.853 77.687 298.998C83.3117 299.252 89.0365 299.021 94.6871 299.152C97.2935 299.213 99.3069 300.729 101.92 300.573C104.575 300.415 107.266 300.391 109.901 300.02C114.437 299.381 118.809 298.477 123.417 298.241C126.33 298.093 128.891 299.346 131.632 300.134C132.625 300.419 133.518 300.285 134.446 300.497C135.323 300.697 136.221 301.269 137.146 301.506C139.337 302.067 141.43 302.281 143.355 302.333C143.605 302.794 143.892 302.85 144.218 302.501C144.35 302.427 144.483 302.351 144.615 302.276C145.229 302.195 145.667 301.918 146.311 301.877C147.304 301.814 148.32 301.949 149.242 301.861C151.171 301.675 152.982 301.553 155.116 301.772C156.381 301.902 157.488 301.718 158.734 301.741C158.72 301.741 160.443 302.077 160.482 302.062C160.635 302.003 160.876 301.577 160.975 301.559C160.939 301.151 161.062 300.967 161.344 301.007C161.569 300.958 161.718 301.076 161.79 301.361C161.722 301.369 162.327 301.674 162.37 301.681C162.405 301.686 163.961 301.502 164.071 301.461C164.517 301.294 164.707 300.808 165.064 300.735C165.485 300.649 165.737 301.114 166.103 301.094C166.909 301.051 166.814 300.692 167.433 300.58C169.608 300.188 172.272 300.698 174.518 300.701C176.758 300.705 178.984 300.5 181.14 300.406C183.79 300.289 186.387 300.792 189.057 300.435C191.597 300.095 194.139 299.947 196.697 299.839C202.046 299.614 207.534 299.852 212.833 299.223C218.35 298.569 223.959 299.223 229.485 299.124C235.311 299.021 241.169 298.968 246.993 298.729C252.79 298.491 258.563 297.801 264.337 297.663C265.806 297.627 267.248 297.277 268.712 297.171C270.051 297.074 271.369 297.287 272.719 297.169C275.179 296.953 277.417 297.118 279.889 297.081C282.653 297.038 285.339 296.617 288.089 296.447C290.869 296.276 293.622 296.668 296.379 296.12C297.886 295.82 300.698 293.756 298.775 292.027Z" fill="black"/>
<path fill-rule="evenodd" clip-rule="evenodd" d="M189.621 46.1309C189.617 46.1309 189.614 46.1313 189.611 46.1309C189.596 46.1469 189.582 46.1641 189.569 46.1793L189.621 46.1309Z" fill="black"/>
<path fill-rule="evenodd" clip-rule="evenodd" d="M212.648 33.4022C212.997 32.1883 212.113 31.3189 211.52 30.3761C211.171 32.5152 210.1 32.4226 212.648 33.4022Z" fill="black"/>
<path fill-rule="evenodd" clip-rule="evenodd" d="M148.504 78.974C148.513 78.9986 148.525 79.0203 148.532 79.0462C148.542 79.0034 148.53 78.9813 148.504 78.974Z" fill="black"/>
<path fill-rule="evenodd" clip-rule="evenodd" d="M138.851 77.372C138.931 77.5506 139.105 78.7868 139.231 78.793C140.351 78.8461 138.986 76.7547 138.27 76.6324C137.234 77.3008 138.876 77.4272 138.851 77.372Z" fill="black"/>
<path fill-rule="evenodd" clip-rule="evenodd" d="M138.791 70.1478C138.717 69.2032 138.399 69.0835 137.494 69.5427C137.765 70.1367 138.087 70.0513 138.791 70.1478Z" fill="black"/>
<path fill-rule="evenodd" clip-rule="evenodd" d="M126.253 47.0202C126.685 47.0923 127.118 47.1643 127.55 47.2359C127.296 46.66 127.042 46.0831 126.788 45.5067C126.609 46.0115 126.431 46.5159 126.253 47.0202Z" fill="black"/>
<path fill-rule="evenodd" clip-rule="evenodd" d="M135.128 236.798C135.128 236.797 135.128 236.796 135.129 236.795C135.098 236.807 135.093 236.81 135.128 236.798Z" fill="black"/>
<path fill-rule="evenodd" clip-rule="evenodd" d="M46.9178 119.062C47.8335 117.531 49.5699 115.64 51.5466 116.276C53.3932 116.871 53.9044 119.292 54.7002 120.814C56.2482 123.774 56.7302 120.596 57.0732 118.799C56.7937 115.201 55.3936 109.345 50.6574 109.965C47.0548 110.438 43.944 116.224 44.63 119.645C45.2063 122.521 46.1792 120.297 46.9178 119.062Z" fill="black"/>
<path fill-rule="evenodd" clip-rule="evenodd" d="M183.441 51.2507C181.672 50.6194 181.674 52.5305 181.606 53.9669C181.543 55.2868 181.748 58.3827 183.414 58.8542C185.074 59.3244 185.23 56.5902 185.487 55.4846C185.101 54.1724 184.886 51.7666 183.441 51.2507Z" fill="black"/>
<path fill-rule="evenodd" clip-rule="evenodd" d="M185.487 48.3831C184.189 47.2357 183.322 46.8842 181.664 47.6253C180.81 48.0067 179.591 48.8362 179.458 49.8824C179.04 53.1383 184.343 49.0512 185.487 48.3831Z" fill="black"/>
<path fill-rule="evenodd" clip-rule="evenodd" d="M185.758 67.8881C188.784 68.6696 188.977 64.5347 185.612 64.528C183.361 64.5236 184.068 67.4518 185.758 67.8881Z" fill="black"/>
<path fill-rule="evenodd" clip-rule="evenodd" d="M162.629 55.034C161.5 55.199 161.101 55.9076 161.343 57.0385C161.622 58.3431 162.33 58.354 163.596 58.4758C166.648 58.4853 164.656 54.738 162.629 55.034Z" fill="black"/>
<path fill-rule="evenodd" clip-rule="evenodd" d="M189.42 48.0319C189.699 48.8063 191.216 49.1562 192.009 48.8608C192.952 48.5095 193.148 47.6558 192.297 46.8716C191.568 46.2001 190.563 46.3771 189.651 46.4394C189.681 46.7325 189.246 47.5502 189.42 48.0319Z" fill="black"/>
<path fill-rule="evenodd" clip-rule="evenodd" d="M94.4997 136.29C95.9427 136.288 94.5811 133.848 93.3924 133.696C93.4174 134.451 93.3678 136.292 94.4997 136.29Z" fill="black"/>
</svg>
